<svg width="603" height="243" viewBox="0 0 603 243" fill="none" xmlns="http://www.w3.org/2000/svg">
<mask id="path-1-outside-1_83_3" maskUnits="userSpaceOnUse" x="0" y="0" width="603" height="243" fill="black">
<rect fill="white" width="603" height="243"/>
<path d="M35.9014 52.3125H79.7217V5H110.622V115.276C123.458 122.72 131.325 135.153 133.732 150.853H103.705C101.435 140.727 93.0549 133.045 79.4375 133.045C58.8368 133.045 48.5361 150.155 48.5361 172.851C48.5363 195.721 60.408 212.655 79.9609 212.655C96.1971 212.655 105.799 201.831 107.021 190.832V190.483H83.6279V167.787H135.653V234.827H114.005L112.259 219.813H111.91C103.705 232.558 91.4837 237.62 76.4697 237.62C58.6623 237.62 44.1715 231.335 33.8711 220.162C23.0472 208.291 17.1114 191.88 17.1113 172.851C17.1113 156.224 21.9091 141.24 30.6436 129.827H5V5H35.9014V52.3125ZM426.545 78.5C429.338 87.2291 432.132 99.1006 432.132 99.1006H432.481C432.488 99.0667 434.929 87.2166 437.719 78.5L449.415 40.4404H477.872L446.972 131.049C445.2 136.233 443.342 140.584 441.278 144.195C444.993 143.298 448.942 142.822 453.09 142.822C465.834 142.822 475.96 147.012 483.642 153.995C494.291 163.772 499.529 179.31 499.354 197.467H435.107C436.853 209.513 443.488 217.019 455.185 217.02C462.692 217.02 467.58 213.703 470.024 208.116H497.783C495.863 216.147 490.625 223.828 482.769 229.24C475.262 234.478 466.184 237.446 454.836 237.446C425.331 237.446 407.175 217.019 407.175 189.959C407.175 178.024 410.907 167.346 417.462 159.183C416.126 159.282 414.733 159.332 413.277 159.332H397.592V234.827H370.356V222.781H370.008C364.596 232.034 355.342 237.62 343.646 237.62C320.775 237.62 304.539 219.987 304.539 190.134C304.539 162.201 320.601 142.822 343.646 142.822C356.215 142.822 363.374 148.059 368.611 155.566H369.135V110H397.592V137.159H404.548C412.928 137.159 416.245 133.843 416.245 127.732C416.245 123.892 414.499 118.654 410.833 109.227L384.471 40.4404H414.499L426.545 78.5ZM189.304 142.996C202.746 142.996 211.825 145.441 218.284 150.329C225.966 155.916 229.632 164.645 229.632 175.818V220.86C229.632 228.018 230.33 232.034 232.774 233.605V234.827H205.19C203.794 232.907 202.921 229.415 202.223 224.876H201.873C196.636 232.383 188.78 237.097 175.337 237.097C157.529 237.097 144.785 227.494 144.785 209.861C144.785 190.134 160.497 184.198 179.003 181.754C195.763 179.659 201.699 177.913 201.699 171.803C201.699 166.042 198.032 162.201 189.478 162.201C180.4 162.201 175.86 166.217 174.987 173.724H148.8C149.498 157.138 162.243 142.996 189.304 142.996ZM295.627 144.044C298.246 144.044 299.992 144.218 301.214 144.742V169.184H300.516C283.057 166.739 271.884 175.294 271.884 194.673V234.827H243.427V145.44H270.662V159.407H271.186C277.47 148.758 284.803 144.044 295.627 144.044ZM564.398 142.822C583.952 142.822 595.475 156.789 595.475 176.691V234.827H567.018V182.452C567.018 173.025 562.304 166.565 553.051 166.565C543.623 166.565 537.339 174.421 537.339 185.42V234.827H508.882V145.44H536.291V157.661H536.814C543.449 148.059 552.003 142.822 564.398 142.822ZM202.397 192.229C198.731 194.149 193.494 195.546 187.732 196.942C176.734 199.387 172.194 202.181 172.194 208.989C172.195 216.147 177.432 218.94 184.415 218.94C195.064 218.94 202.397 212.481 202.397 202.879V192.229ZM351.327 164.296C339.979 164.296 333.345 174.771 333.345 189.785C333.345 205.323 339.98 215.1 350.979 215.1C362.85 215.099 369.833 204.799 369.833 190.134C369.833 175.12 363.722 164.296 351.327 164.296ZM453.613 163.073C442.789 163.073 437.203 169.883 435.282 180.532H470.548C469.5 169.883 462.866 163.073 453.613 163.073ZM554.264 37.8223C579.578 37.8223 593.195 48.8206 594.592 66.4531H568.404C567.357 58.4227 561.945 55.9785 554.089 55.9785C547.106 55.9785 541.694 58.5972 541.693 64.1836C541.693 70.4685 551.819 71.3416 563.167 73.4365C578.879 76.0553 597.386 80.0711 597.386 102.941C597.386 122.495 580.102 132.62 556.708 132.62C530.521 132.62 514.109 120.574 513.236 100.847H540.122C541.17 109.75 547.106 114.114 556.533 114.114C565.088 114.114 570.5 110.972 570.5 105.211C570.5 97.1802 559.675 96.3069 547.804 94.2119C532.266 91.5932 515.681 87.403 515.681 66.4531C515.681 47.5985 533.139 37.8223 554.264 37.8223ZM167.907 37.8223C180.652 37.8223 190.778 42.0118 198.46 48.9951C209.109 58.7718 214.346 74.3103 214.172 92.4668H149.926C151.672 104.513 158.306 112.02 170.003 112.02C177.51 112.019 182.398 108.703 184.842 103.116H212.601C210.68 111.147 205.443 118.828 197.587 124.24C190.08 129.478 181.001 132.446 169.653 132.446C140.149 132.446 121.992 112.019 121.992 84.959C121.992 58.2481 140.673 37.8224 167.907 37.8223ZM279.217 37.8223C298.77 37.8225 310.292 51.7891 310.292 71.6914V129.827H281.835V77.4521C281.835 68.0248 277.121 61.5654 267.868 61.5654C258.441 61.5656 252.156 69.4215 252.156 80.4199V129.827H223.699V40.4404H251.108V52.6611H251.632C258.266 43.0591 266.821 37.8223 279.217 37.8223ZM375.466 39.0439C378.085 39.0439 379.831 39.2184 381.053 39.7422V64.1836H380.354C362.896 61.7394 351.723 70.2943 351.723 89.6729V129.827H323.266V40.4404H350.501V54.4072H351.024C357.309 43.7578 364.642 39.044 375.466 39.0439ZM35.9014 123.856C46.1834 113.556 60.5721 107.557 78.3896 107.557C78.836 107.557 79.2803 107.56 79.7217 107.566V77.8018H35.9014V123.856ZM168.432 58.0732C157.608 58.0732 152.02 64.8827 150.1 75.5322H185.366C184.319 64.8828 177.684 58.0734 168.432 58.0732ZM512.934 27.8711C512.934 36.9491 509.966 43.4084 505.427 48.1221C500.539 53.1849 493.381 56.1532 486.397 56.8516V46.7256C493.206 44.6305 498.792 38.695 498.792 31.0137H486.921V5H512.934V27.8711Z"/>
</mask>
<path d="M35.9014 52.3125H30.9014V57.3125H35.9014V52.3125ZM79.7217 52.3125V57.3125H84.7217V52.3125H79.7217ZM79.7217 5V0H74.7217V5H79.7217ZM110.622 5H115.622V0H110.622V5ZM110.622 115.276H105.622V118.157L108.114 119.602L110.622 115.276ZM133.732 150.853V155.853H139.558L138.675 150.095L133.732 150.853ZM103.705 150.853L98.8261 151.946L99.7017 155.853H103.705V150.853ZM79.4375 133.045V128.045H79.4375L79.4375 133.045ZM48.5361 172.851H43.5361V172.851L48.5361 172.851ZM79.9609 212.655L79.9609 217.655H79.9609V212.655ZM107.021 190.832L111.991 191.384L112.021 191.109V190.832H107.021ZM107.021 190.483H112.021V185.483H107.021V190.483ZM83.6279 190.483H78.6279V195.483H83.6279V190.483ZM83.6279 167.787V162.787H78.6279V167.787H83.6279ZM135.653 167.787H140.653V162.787H135.653V167.787ZM135.653 234.827V239.827H140.653V234.827H135.653ZM114.005 234.827L109.038 235.405L109.553 239.827H114.005V234.827ZM112.259 219.813L117.225 219.236L116.711 214.813H112.259V219.813ZM111.91 219.813V214.813H109.183L107.706 217.107L111.91 219.813ZM76.4697 237.62V242.62V242.62V237.62ZM33.8711 220.162L30.1763 223.531L30.1856 223.541L30.1949 223.551L33.8711 220.162ZM17.1113 172.851H12.1113V172.851L17.1113 172.851ZM30.6436 129.827L34.6141 132.866L40.7667 124.827H30.6436V129.827ZM5 129.827H0V134.827H5V129.827ZM5 5V0H0V5H5ZM35.9014 5H40.9014V0H35.9014V5ZM426.545 78.5L421.778 80.0087L421.78 80.0163L421.783 80.0239L426.545 78.5ZM432.132 99.1006L427.265 100.246L428.172 104.101H432.132V99.1006ZM432.481 99.1006V104.101H436.557L437.379 100.109L432.481 99.1006ZM437.719 78.5L442.481 80.0239L442.49 79.9964L442.498 79.9688L437.719 78.5ZM449.415 40.4404V35.4404H445.721L444.636 38.9716L449.415 40.4404ZM477.872 40.4404L482.604 42.0543L484.86 35.4404H477.872V40.4404ZM446.972 131.049L451.703 132.665L451.704 132.663L446.972 131.049ZM441.278 144.195L436.937 141.714L431.186 151.777L442.453 149.055L441.278 144.195ZM453.09 142.822V137.822V137.822V142.822ZM483.642 153.995L487.023 150.312L487.014 150.304L487.005 150.295L483.642 153.995ZM499.354 197.467V202.467H504.307L504.354 197.515L499.354 197.467ZM435.107 197.467V192.467H429.331L430.159 198.184L435.107 197.467ZM455.185 217.02L455.185 222.02H455.185V217.02ZM470.024 208.116V203.116H466.754L465.444 206.112L470.024 208.116ZM497.783 208.116L502.646 209.279L504.12 203.116H497.783V208.116ZM482.769 229.24L479.932 225.123L479.92 225.131L479.908 225.14L482.769 229.24ZM454.836 237.446V242.446H454.836L454.836 237.446ZM407.175 189.959L402.175 189.959V189.959H407.175ZM417.462 159.183L421.361 162.313L428.563 153.343L417.091 154.196L417.462 159.183ZM413.277 159.332V164.332H413.277L413.277 159.332ZM397.592 159.332V154.332H392.592V159.332H397.592ZM397.592 234.827V239.827H402.592V234.827H397.592ZM370.356 234.827H365.356V239.827H370.356V234.827ZM370.356 222.781H375.356V217.781H370.356V222.781ZM370.008 222.781V217.781H367.14L365.692 220.257L370.008 222.781ZM343.646 237.62V242.62V242.62V237.62ZM304.539 190.134L299.539 190.134V190.134H304.539ZM343.646 142.822V137.822V137.822V142.822ZM368.611 155.566L364.511 158.427L366.003 160.566H368.611V155.566ZM369.135 155.566V160.566H374.135V155.566H369.135ZM369.135 110V105H364.135V110H369.135ZM397.592 110H402.592V105H397.592V110ZM397.592 137.159H392.592V142.159H397.592V137.159ZM404.548 137.159V142.159H404.548L404.548 137.159ZM416.245 127.732L421.245 127.732V127.732H416.245ZM410.833 109.227L406.164 111.016L406.169 111.027L406.173 111.039L410.833 109.227ZM384.471 40.4404V35.4404H377.2L379.802 42.2298L384.471 40.4404ZM414.499 40.4404L419.266 38.9317L418.161 35.4404H414.499V40.4404ZM189.304 142.996L189.304 137.996H189.304V142.996ZM218.284 150.329L215.267 154.316L215.305 154.345L215.343 154.373L218.284 150.329ZM232.774 233.605H237.774V230.876L235.478 229.4L232.774 233.605ZM232.774 234.827V239.827H237.774V234.827H232.774ZM205.19 234.827L201.147 237.768L202.644 239.827H205.19V234.827ZM202.223 224.876L207.165 224.116L206.512 219.876H202.223V224.876ZM201.873 224.876V219.876H199.265L197.772 222.015L201.873 224.876ZM175.337 237.097V242.097H175.337L175.337 237.097ZM144.785 209.861L139.785 209.861V209.861H144.785ZM179.003 181.754L178.383 176.793L178.365 176.795L178.348 176.797L179.003 181.754ZM201.699 171.803H206.699V171.803H201.699ZM189.478 162.201V157.201H189.477L189.478 162.201ZM174.987 173.724V178.724H179.44L179.954 174.301L174.987 173.724ZM148.8 173.724L143.804 173.513L143.585 178.724H148.8V173.724ZM295.627 144.044V139.044H295.627L295.627 144.044ZM301.214 144.742H306.214V141.445L303.183 140.146L301.214 144.742ZM301.214 169.184V174.184H306.214V169.184H301.214ZM300.516 169.184L299.822 174.135L300.167 174.184H300.516V169.184ZM271.884 194.673L266.884 194.673V194.673H271.884ZM271.884 234.827V239.827H276.884V234.827H271.884ZM243.427 234.827H238.427V239.827H243.427V234.827ZM243.427 145.44V140.44H238.427V145.44H243.427ZM270.662 145.44H275.662V140.44H270.662V145.44ZM270.662 159.407H265.662V164.407H270.662V159.407ZM271.186 159.407V164.407H274.041L275.492 161.949L271.186 159.407ZM564.398 142.822V137.822H564.398L564.398 142.822ZM595.475 234.827V239.827H600.475V234.827H595.475ZM567.018 234.827H562.018V239.827H567.018V234.827ZM567.018 182.452H572.018V182.452L567.018 182.452ZM553.051 166.565V161.565H553.051L553.051 166.565ZM537.339 185.42L532.339 185.42V185.42H537.339ZM537.339 234.827V239.827H542.339V234.827H537.339ZM508.882 234.827H503.882V239.827H508.882V234.827ZM508.882 145.44V140.44H503.882V145.44H508.882ZM536.291 145.44H541.291V140.44H536.291V145.44ZM536.291 157.661H531.291V162.661H536.291V157.661ZM536.814 157.661V162.661H539.437L540.928 160.503L536.814 157.661ZM202.397 192.229H207.397V183.965L200.077 187.799L202.397 192.229ZM187.732 196.942L188.817 201.823L188.864 201.813L188.91 201.802L187.732 196.942ZM172.194 208.989H167.194V208.989L172.194 208.989ZM184.415 218.94L184.415 223.94H184.415V218.94ZM202.397 202.879L207.397 202.879V202.879H202.397ZM351.327 164.296V159.296H351.327L351.327 164.296ZM333.345 189.785H328.345V189.785L333.345 189.785ZM350.979 215.1V220.1H350.979L350.979 215.1ZM369.833 190.134H374.833V190.134L369.833 190.134ZM453.613 163.073V158.073H453.613L453.613 163.073ZM435.282 180.532L430.362 179.645L429.3 185.532H435.282V180.532ZM470.548 180.532V185.532H476.064L475.524 180.043L470.548 180.532ZM554.264 37.8223V32.8223V32.8223V37.8223ZM594.592 66.4531V71.4531H600.004L599.576 66.0583L594.592 66.4531ZM568.404 66.4531L563.446 67.0999L564.014 71.4531H568.404V66.4531ZM554.089 55.9785V50.9785V50.9785V55.9785ZM541.693 64.1836L536.693 64.1834V64.1836H541.693ZM563.167 73.4365L562.259 78.3534L562.302 78.3613L562.345 78.3685L563.167 73.4365ZM597.386 102.941H602.386V102.941H597.386ZM556.708 132.62V137.62V137.62V132.62ZM513.236 100.847V95.8467H508.01L508.241 101.068L513.236 100.847ZM540.122 100.847L545.088 100.262L544.568 95.8467H540.122V100.847ZM556.533 114.114V119.114V119.114V114.114ZM570.5 105.211H575.5V105.211L570.5 105.211ZM547.804 94.2119L548.673 89.288L548.654 89.2847L548.635 89.2814L547.804 94.2119ZM515.681 66.4531L510.681 66.4531V66.4531H515.681ZM167.907 37.8223V32.8223H167.907L167.907 37.8223ZM198.46 48.9951L201.841 45.3119L201.832 45.3036L201.823 45.2954L198.46 48.9951ZM214.172 92.4668V97.4668H219.124L219.172 92.5149L214.172 92.4668ZM149.926 92.4668V87.4668H144.149L144.977 93.184L149.926 92.4668ZM170.003 112.02V117.02H170.003L170.003 112.02ZM184.842 103.116V98.1162H181.572L180.261 101.112L184.842 103.116ZM212.601 103.116L217.463 104.279L218.937 98.1162H212.601V103.116ZM197.587 124.24L194.75 120.123L194.738 120.131L194.726 120.14L197.587 124.24ZM169.653 132.446V137.446V137.446V132.446ZM121.992 84.959L116.992 84.959V84.959H121.992ZM279.217 37.8223L279.217 32.8223H279.217V37.8223ZM310.292 129.827V134.827H315.292V129.827H310.292ZM281.835 129.827H276.835V134.827H281.835V129.827ZM281.835 77.4521H286.835V77.4521L281.835 77.4521ZM267.868 61.5654V56.5654H267.868L267.868 61.5654ZM252.156 80.4199L247.156 80.4199V80.4199H252.156ZM252.156 129.827V134.827H257.156V129.827H252.156ZM223.699 129.827H218.699V134.827H223.699V129.827ZM223.699 40.4404V35.4404H218.699V40.4404H223.699ZM251.108 40.4404H256.108V35.4404H251.108V40.4404ZM251.108 52.6611H246.108V57.6611H251.108V52.6611ZM251.632 52.6611V57.6611H254.255L255.745 55.5033L251.632 52.6611ZM375.466 39.0439V34.0439H375.466L375.466 39.0439ZM381.053 39.7422H386.053V36.4452L383.022 35.1465L381.053 39.7422ZM381.053 64.1836V69.1836H386.053V64.1836H381.053ZM380.354 64.1836L379.661 69.1353L380.006 69.1836H380.354V64.1836ZM351.723 89.6729L346.723 89.6728V89.6729H351.723ZM351.723 129.827V134.827H356.723V129.827H351.723ZM323.266 129.827H318.266V134.827H323.266V129.827ZM323.266 40.4404V35.4404H318.266V40.4404H323.266ZM350.501 40.4404H355.501V35.4404H350.501V40.4404ZM350.501 54.4072H345.501V59.4072H350.501V54.4072ZM351.024 54.4072V59.4072H353.879L355.33 56.9485L351.024 54.4072ZM35.9014 123.856H30.9014V135.943L39.44 127.389L35.9014 123.856ZM78.3896 107.557V102.557H78.3896L78.3896 107.557ZM79.7217 107.566L79.6471 112.566L84.7217 112.642V107.566H79.7217ZM79.7217 77.8018H84.7217V72.8018H79.7217V77.8018ZM35.9014 77.8018V72.8018H30.9014V77.8018H35.9014ZM168.432 58.0732L168.432 53.0732H168.432V58.0732ZM150.1 75.5322L145.179 74.6449L144.117 80.5322H150.1V75.5322ZM185.366 75.5322V80.5322H190.882L190.342 75.0428L185.366 75.5322ZM512.934 27.8711L517.934 27.8711V27.8711H512.934ZM505.427 48.1221L509.024 51.595L509.028 51.5902L505.427 48.1221ZM486.397 56.8516H481.397V62.3766L486.895 61.8267L486.397 56.8516ZM486.397 46.7256L484.927 41.9467L481.397 43.0328V46.7256H486.397ZM498.792 31.0137L503.792 31.0138L503.792 26.0137H498.792V31.0137ZM486.921 31.0137H481.921V36.0137H486.921V31.0137ZM486.921 5V0H481.921V5H486.921ZM512.934 5H517.934V0H512.934V5ZM35.9014 52.3125V57.3125H79.7217V52.3125V47.3125H35.9014V52.3125ZM79.7217 52.3125H84.7217V5H79.7217H74.7217V52.3125H79.7217ZM79.7217 5V10H110.622V5V0H79.7217V5ZM110.622 5H105.622V115.276H110.622H115.622V5H110.622ZM110.622 115.276L108.114 119.602C119.48 126.193 126.583 137.215 128.79 151.61L133.732 150.853L138.675 150.095C136.067 133.092 127.436 119.247 113.13 110.951L110.622 115.276ZM133.732 150.853V145.853H103.705V150.853V155.853H133.732V150.853ZM103.705 150.853L108.584 149.759C105.78 137.248 95.2894 128.045 79.4375 128.045V133.045V138.045C90.8204 138.045 97.0911 144.205 98.8261 151.946L103.705 150.853ZM79.4375 133.045L79.4375 128.045C67.5546 128.045 58.3143 133.075 52.2114 141.505C46.2507 149.739 43.5361 160.835 43.5361 172.851H48.5361H53.5361C53.5361 162.17 55.9719 153.364 60.3117 147.369C64.5094 141.57 70.7197 138.045 79.4375 138.045L79.4375 133.045ZM48.5361 172.851L43.5361 172.851C43.5362 185.093 46.7083 196.194 52.9413 204.362C59.2675 212.653 68.5737 217.655 79.9609 217.655L79.9609 212.655L79.961 207.655C71.7952 207.655 65.3891 204.19 60.8911 198.296C56.3 192.279 53.5362 183.478 53.5361 172.851L48.5361 172.851ZM79.9609 212.655V217.655C98.7222 217.655 110.485 204.938 111.991 191.384L107.021 190.832L102.052 190.28C101.114 198.724 93.6721 207.655 79.9609 207.655V212.655ZM107.021 190.832H112.021V190.483H107.021H102.021V190.832H107.021ZM107.021 190.483V185.483H83.6279V190.483V195.483H107.021V190.483ZM83.6279 190.483H88.6279V167.787H83.6279H78.6279V190.483H83.6279ZM83.6279 167.787V172.787H135.653V167.787V162.787H83.6279V167.787ZM135.653 167.787H130.653V234.827H135.653H140.653V167.787H135.653ZM135.653 234.827V229.827H114.005V234.827V239.827H135.653V234.827ZM114.005 234.827L118.971 234.25L117.225 219.236L112.259 219.813L107.292 220.391L109.038 235.405L114.005 234.827ZM112.259 219.813V214.813H111.91V219.813V224.813H112.259V219.813ZM111.91 219.813L107.706 217.107C100.625 228.106 90.1973 232.62 76.4697 232.62V237.62V242.62C92.7702 242.62 106.785 237.01 116.114 222.52L111.91 219.813ZM76.4697 237.62V232.62C59.9185 232.62 46.8099 226.821 37.5473 216.773L33.8711 220.162L30.1949 223.551C41.5331 235.85 57.4061 242.62 76.4697 242.62V237.62ZM33.8711 220.162L37.5659 216.793C27.7094 205.983 22.1114 190.837 22.1113 172.851L17.1113 172.851L12.1113 172.851C12.1114 192.923 18.385 210.598 30.1763 223.531L33.8711 220.162ZM17.1113 172.851H22.1113C22.1113 157.174 26.6326 143.295 34.6141 132.866L30.6436 129.827L26.673 126.788C17.1855 139.184 12.1113 155.275 12.1113 172.851H17.1113ZM30.6436 129.827V124.827H5V129.827V134.827H30.6436V129.827ZM5 129.827H10V5H5H0V129.827H5ZM5 5V10H35.9014V5V0H5V5ZM35.9014 5H30.9014V52.3125H35.9014H40.9014V5H35.9014ZM426.545 78.5L421.783 80.0239C423.136 84.2523 424.505 89.2944 425.544 93.3232C426.062 95.3282 426.493 97.0639 426.795 98.2971C426.946 98.9134 427.064 99.4035 427.144 99.7382C427.184 99.9055 427.215 100.034 427.235 100.12C427.245 100.163 427.253 100.195 427.258 100.216C427.26 100.227 427.262 100.235 427.263 100.24C427.264 100.242 427.264 100.244 427.265 100.245C427.265 100.245 427.265 100.246 427.265 100.246C427.265 100.246 427.265 100.246 427.265 100.246C427.265 100.246 427.265 100.246 432.132 99.1006C436.999 97.9553 436.999 97.9551 436.999 97.9548C436.999 97.9547 436.999 97.9544 436.999 97.9542C436.999 97.9536 436.998 97.9529 436.998 97.952C436.998 97.9501 436.997 97.9476 436.996 97.9444C436.995 97.9379 436.993 97.9285 436.99 97.9164C436.984 97.8921 436.976 97.8566 436.965 97.8105C436.943 97.7182 436.911 97.583 436.869 97.4087C436.785 97.06 436.663 96.5545 436.509 95.9215C436.199 94.6559 435.757 92.8782 435.227 90.8242C434.172 86.7351 432.747 81.4768 431.307 76.9761L426.545 78.5ZM432.132 99.1006V104.101H432.481V99.1006V94.1006H432.132V99.1006ZM432.481 99.1006L437.379 100.109C437.376 100.121 437.978 97.2006 438.922 93.2076C439.872 89.1932 441.145 84.1983 442.481 80.0239L437.719 78.5L432.957 76.9761C430.075 85.9805 427.587 98.0769 427.584 98.092L432.481 99.1006ZM437.719 78.5L442.498 79.9688L454.194 41.9092L449.415 40.4404L444.636 38.9716L432.939 77.0312L437.719 78.5ZM449.415 40.4404V45.4404H477.872V40.4404V35.4404H449.415V40.4404ZM477.872 40.4404L473.14 38.8265L442.239 129.435L446.972 131.049L451.704 132.663L482.604 42.0543L477.872 40.4404ZM446.972 131.049L442.24 129.432C440.532 134.432 438.793 138.467 436.937 141.714L441.278 144.195L445.619 146.676C447.892 142.7 449.869 138.034 451.703 132.665L446.972 131.049ZM441.278 144.195L442.453 149.055C445.772 148.254 449.326 147.822 453.09 147.822V142.822V137.822C448.559 137.822 444.215 138.342 440.104 139.335L441.278 144.195ZM453.09 142.822V147.822C464.647 147.822 473.558 151.585 480.278 157.695L483.642 153.995L487.005 150.295C478.362 142.438 467.022 137.822 453.09 137.822V142.822ZM483.642 153.995L480.26 157.678C489.528 166.187 494.521 180.145 494.355 197.419L499.354 197.467L504.354 197.515C504.537 178.476 499.054 161.357 487.023 150.312L483.642 153.995ZM499.354 197.467V192.467H435.107V197.467V202.467H499.354V197.467ZM435.107 197.467L430.159 198.184C431.133 204.901 433.546 210.906 437.856 215.273C442.258 219.732 448.186 222.019 455.185 222.02L455.185 217.02L455.185 212.02C450.487 212.019 447.249 210.553 444.973 208.248C442.605 205.849 440.828 202.078 440.056 196.75L435.107 197.467ZM455.185 217.02V222.02C459.679 222.02 463.732 221.022 467.136 218.913C470.56 216.792 473.024 213.734 474.605 210.12L470.024 208.116L465.444 206.112C464.58 208.085 463.378 209.478 461.87 210.412C460.342 211.359 458.197 212.02 455.185 212.02V217.02ZM470.024 208.116V213.116H497.783V208.116V203.116H470.024V208.116ZM497.783 208.116L492.92 206.953C491.306 213.703 486.84 220.364 479.932 225.123L482.769 229.24L485.605 233.358C494.409 227.293 500.419 218.591 502.646 209.279L497.783 208.116ZM482.769 229.24L479.908 225.14C473.304 229.747 465.241 232.446 454.836 232.446L454.836 237.446L454.836 242.446C467.126 242.446 477.219 239.208 485.629 233.341L482.769 229.24ZM454.836 237.446V232.446C441.286 232.446 430.717 227.784 423.532 220.371C416.322 212.931 412.175 202.363 412.175 189.959H407.175H402.175C402.175 204.615 407.106 217.791 416.351 227.33C425.62 236.895 438.882 242.446 454.836 242.446V237.446ZM407.175 189.959L412.175 189.959C412.175 179.075 415.571 169.523 421.361 162.313L417.462 159.183L413.563 156.052C406.242 165.17 402.175 176.973 402.175 189.959L407.175 189.959ZM417.462 159.183L417.091 154.196C415.888 154.286 414.618 154.332 413.277 154.332L413.277 159.332L413.277 164.332C414.847 164.332 416.364 164.278 417.833 164.169L417.462 159.183ZM413.277 159.332V154.332H397.592V159.332V164.332H413.277V159.332ZM397.592 159.332H392.592V234.827H397.592H402.592V159.332H397.592ZM397.592 234.827V229.827H370.356V234.827V239.827H397.592V234.827ZM370.356 234.827H375.356V222.781H370.356H365.356V234.827H370.356ZM370.356 222.781V217.781H370.008V222.781V227.781H370.356V222.781ZM370.008 222.781L365.692 220.257C361.177 227.976 353.567 232.62 343.646 232.62V237.62V242.62C357.118 242.62 368.015 236.092 374.324 225.306L370.008 222.781ZM343.646 237.62V232.62C333.584 232.62 325.235 228.787 319.326 221.834C313.356 214.81 309.539 204.185 309.539 190.134H304.539H299.539C299.539 205.936 303.84 219.055 311.706 228.31C319.633 237.637 330.837 242.62 343.646 242.62V237.62ZM304.539 190.134L309.539 190.134C309.539 177.098 313.285 166.465 319.303 159.19C325.265 151.983 333.638 147.822 343.646 147.822V142.822V137.822C330.608 137.822 319.428 143.351 311.598 152.816C303.824 162.213 299.539 175.237 299.539 190.134L304.539 190.134ZM343.646 142.822V147.822C349.206 147.822 353.273 148.972 356.436 150.742C359.619 152.524 362.194 155.106 364.511 158.427L368.611 155.566L372.712 152.705C369.792 148.519 366.169 144.73 361.32 142.016C356.452 139.291 350.655 137.822 343.646 137.822V142.822ZM368.611 155.566V160.566H369.135V155.566V150.566H368.611V155.566ZM369.135 155.566H374.135V110H369.135H364.135V155.566H369.135ZM369.135 110V115H397.592V110V105H369.135V110ZM397.592 110H392.592V137.159H397.592H402.592V110H397.592ZM397.592 137.159V142.159H404.548V137.159V132.159H397.592V137.159ZM404.548 137.159L404.548 142.159C409.246 142.159 413.585 141.256 416.774 138.549C420.144 135.689 421.245 131.683 421.245 127.732L416.245 127.732L411.245 127.732C411.245 129.892 410.687 130.599 410.303 130.925C409.739 131.404 408.23 132.159 404.548 132.159L404.548 137.159ZM416.245 127.732H421.245C421.245 125.095 420.651 122.283 419.701 119.131C418.745 115.96 417.329 112.135 415.493 107.414L410.833 109.227L406.173 111.039C408.003 115.746 409.293 119.253 410.127 122.018C410.966 124.802 411.245 126.529 411.245 127.732H416.245ZM410.833 109.227L415.502 107.437L389.14 38.6511L384.471 40.4404L379.802 42.2298L406.164 111.016L410.833 109.227ZM384.471 40.4404V45.4404H414.499V40.4404V35.4404H384.471V40.4404ZM414.499 40.4404L409.732 41.9492L421.778 80.0087L426.545 78.5L431.312 76.9913L419.266 38.9317L414.499 40.4404ZM189.304 142.996L189.304 147.996C202.221 147.996 210.038 150.359 215.267 154.316L218.284 150.329L221.301 146.342C213.611 140.523 203.272 137.996 189.304 137.996L189.304 142.996ZM218.284 150.329L215.343 154.373C221.403 158.78 224.632 165.79 224.632 175.818H229.632H234.632C234.632 163.5 230.529 153.052 221.225 146.285L218.284 150.329ZM229.632 175.818H224.632V220.86H229.632H234.632V175.818H229.632ZM229.632 220.86H224.632C224.632 224.507 224.8 227.772 225.413 230.445C226.026 233.121 227.269 236.011 230.071 237.811L232.774 233.605L235.478 229.4C235.835 229.629 235.507 229.725 235.16 228.211C234.813 226.694 234.632 224.371 234.632 220.86H229.632ZM232.774 233.605H227.774V234.827H232.774H237.774V233.605H232.774ZM232.774 234.827V229.827H205.19V234.827V239.827H232.774V234.827ZM205.19 234.827L209.234 231.886C209.037 231.616 208.666 230.909 208.252 229.46C207.855 228.068 207.499 226.293 207.165 224.116L202.223 224.876L197.281 225.636C197.644 227.998 198.075 230.238 198.637 232.207C199.183 234.119 199.947 236.118 201.147 237.768L205.19 234.827ZM202.223 224.876V219.876H201.873V224.876V229.876H202.223V224.876ZM201.873 224.876L197.772 222.015C195.565 225.178 192.91 227.624 189.473 229.316C186.008 231.022 181.474 232.097 175.337 232.097L175.337 237.097L175.337 242.097C182.643 242.097 188.758 240.814 193.891 238.287C199.052 235.746 202.943 232.081 205.974 227.737L201.873 224.876ZM175.337 237.097V232.097C167.284 232.097 160.904 229.925 156.623 226.283C152.447 222.73 149.785 217.376 149.785 209.861H144.785H139.785C139.785 219.979 143.495 228.243 150.143 233.899C156.687 239.467 165.583 242.097 175.337 242.097V237.097ZM144.785 209.861L149.785 209.861C149.785 201.619 152.922 196.764 157.771 193.458C163.003 189.891 170.576 187.91 179.658 186.711L179.003 181.754L178.348 176.797C168.924 178.042 159.389 180.251 152.138 185.195C144.504 190.4 139.785 198.376 139.785 209.861L144.785 209.861ZM179.003 181.754L179.623 186.715C187.867 185.685 194.226 184.67 198.527 182.913C200.766 181.998 202.908 180.708 204.461 178.704C206.093 176.6 206.699 174.2 206.699 171.803H201.699H196.699C196.699 172.46 196.564 172.57 196.558 172.577C196.475 172.685 196.085 173.108 194.745 173.655C191.888 174.822 186.899 175.728 178.383 176.793L179.003 181.754ZM201.699 171.803H206.699C206.699 167.813 205.385 163.866 202.026 161.024C198.803 158.298 194.411 157.201 189.478 157.201V162.201V167.201C193.099 167.201 194.817 168.025 195.567 168.659C196.18 169.178 196.699 170.031 196.699 171.803H201.699ZM189.478 162.201L189.477 157.201C184.264 157.201 179.575 158.349 175.993 161.274C172.337 164.259 170.562 168.495 170.021 173.146L174.987 173.724L179.954 174.301C180.286 171.445 181.216 169.92 182.318 169.02C183.493 168.061 185.613 167.201 189.478 167.201L189.478 162.201ZM174.987 173.724V168.724H148.8V173.724V178.724H174.987V173.724ZM148.8 173.724L153.795 173.934C154.091 166.909 156.9 160.588 162.388 155.964C167.919 151.303 176.623 147.996 189.304 147.996V142.996V137.996C174.924 137.996 163.725 141.76 155.944 148.317C148.12 154.91 144.207 163.953 143.804 173.513L148.8 173.724ZM295.627 144.044V149.044C298.256 149.044 299.062 149.26 299.244 149.338L301.214 144.742L303.183 140.146C300.922 139.177 298.235 139.044 295.627 139.044V144.044ZM301.214 144.742H296.214V169.184H301.214H306.214V144.742H301.214ZM301.214 169.184V164.184H300.516V169.184V174.184H301.214V169.184ZM300.516 169.184L301.209 164.232C291.609 162.888 282.827 164.451 276.403 169.945C269.957 175.458 266.884 184.073 266.884 194.673L271.884 194.673L276.884 194.673C276.884 185.894 279.398 180.542 282.903 177.545C286.43 174.528 291.964 173.035 299.822 174.135L300.516 169.184ZM271.884 194.673H266.884V234.827H271.884H276.884V194.673H271.884ZM271.884 234.827V229.827H243.427V234.827V239.827H271.884V234.827ZM243.427 234.827H248.427V145.44H243.427H238.427V234.827H243.427ZM243.427 145.44V150.44H270.662V145.44V140.44H243.427V145.44ZM270.662 145.44H265.662V159.407H270.662H275.662V145.44H270.662ZM270.662 159.407V164.407H271.186V159.407V154.407H270.662V159.407ZM271.186 159.407L275.492 161.949C278.377 157.059 281.282 153.914 284.375 151.959C287.412 150.04 290.987 149.044 295.627 149.044L295.627 144.044L295.627 139.044C289.443 139.044 283.939 140.405 279.033 143.505C274.183 146.57 270.279 151.106 266.88 156.866L271.186 159.407ZM564.398 142.822V147.822C572.908 147.822 579.26 150.818 583.535 155.619C587.871 160.488 590.475 167.678 590.475 176.691H595.475H600.475C600.475 165.802 597.316 156.058 591.003 148.968C584.628 141.809 575.442 137.822 564.398 137.822V142.822ZM595.475 176.691H590.475V234.827H595.475H600.475V176.691H595.475ZM595.475 234.827V229.827H567.018V234.827V239.827H595.475V234.827ZM567.018 234.827H572.018V182.452H567.018H562.018V234.827H567.018ZM567.018 182.452L572.018 182.452C572.018 176.972 570.652 171.728 567.34 167.767C563.92 163.675 558.934 161.565 553.051 161.565V166.565V171.565C556.42 171.565 558.418 172.685 559.668 174.18C561.026 175.806 562.018 178.505 562.018 182.452L567.018 182.452ZM553.051 166.565L553.051 161.565C546.828 161.565 541.49 164.209 537.8 168.69C534.174 173.093 532.339 179.001 532.339 185.42L537.339 185.42L542.339 185.42C542.339 180.84 543.646 177.321 545.519 175.047C547.328 172.85 549.846 171.565 553.051 171.565L553.051 166.565ZM537.339 185.42H532.339V234.827H537.339H542.339V185.42H537.339ZM537.339 234.827V229.827H508.882V234.827V239.827H537.339V234.827ZM508.882 234.827H513.882V145.44H508.882H503.882V234.827H508.882ZM508.882 145.44V150.44H536.291V145.44V140.44H508.882V145.44ZM536.291 145.44H531.291V157.661H536.291H541.291V145.44H536.291ZM536.291 157.661V162.661H536.814V157.661V152.661H536.291V157.661ZM536.814 157.661L540.928 160.503C543.913 156.183 547.173 153.068 550.874 151.012C554.555 148.967 558.936 147.822 564.398 147.822L564.398 142.822L564.398 137.822C557.466 137.822 551.372 139.296 546.018 142.27C540.684 145.233 536.35 149.538 532.701 154.819L536.814 157.661ZM202.397 192.229L200.077 187.799C197.049 189.385 192.428 190.659 186.554 192.083L187.732 196.942L188.91 201.802C194.559 200.432 200.413 198.912 204.717 196.658L202.397 192.229ZM187.732 196.942L186.648 192.061C181.109 193.292 176.298 194.772 172.867 197.308C171.047 198.654 169.557 200.332 168.559 202.433C167.572 204.51 167.194 206.73 167.194 208.989H172.194H177.194C177.194 207.844 177.384 207.162 177.592 206.724C177.789 206.309 178.121 205.86 178.811 205.35C180.399 204.176 183.358 203.037 188.817 201.823L187.732 196.942ZM172.194 208.989L167.194 208.989C167.194 213.948 169.101 218.032 172.738 220.687C176.116 223.153 180.38 223.94 184.415 223.94L184.415 218.94L184.415 213.94C181.467 213.94 179.621 213.331 178.634 212.611C177.907 212.08 177.194 211.188 177.194 208.989L172.194 208.989ZM184.415 218.94V223.94C190.738 223.94 196.487 222.015 200.723 218.246C205.009 214.433 207.397 209.032 207.397 202.879L202.397 202.879L197.397 202.879C197.397 206.328 196.119 208.958 194.076 210.775C191.984 212.636 188.741 213.94 184.415 213.94V218.94ZM202.397 202.879H207.397V192.229H202.397H197.397V202.879H202.397ZM351.327 164.296L351.327 159.296C343.881 159.296 337.892 162.833 333.954 168.586C330.136 174.165 328.345 181.625 328.345 189.785H333.345H338.345C338.345 182.931 339.871 177.647 342.207 174.234C344.423 170.997 347.426 169.296 351.327 169.296L351.327 164.296ZM333.345 189.785L328.345 189.785C328.345 198.177 330.124 205.617 333.925 211.113C337.857 216.799 343.777 220.1 350.979 220.1V215.1V210.1C347.181 210.1 344.284 208.511 342.15 205.425C339.883 202.148 338.345 196.931 338.345 189.785L333.345 189.785ZM350.979 215.1L350.979 220.1C358.55 220.099 364.744 216.731 368.891 211.071C372.924 205.566 374.833 198.188 374.833 190.134H369.833H364.833C364.833 196.745 363.25 201.849 360.824 205.161C358.511 208.318 355.279 210.1 350.978 210.1L350.979 215.1ZM369.833 190.134L374.833 190.134C374.833 182.053 373.205 174.494 369.379 168.797C365.395 162.863 359.228 159.296 351.327 159.296V164.296V169.296C355.822 169.296 358.908 171.141 361.077 174.372C363.406 177.84 364.833 183.2 364.833 190.134L369.833 190.134ZM453.613 163.073L453.613 158.073C447.06 158.073 441.607 160.181 437.548 164.3C433.607 168.298 431.427 173.738 430.362 179.645L435.282 180.532L440.203 181.42C441.058 176.677 442.632 173.387 444.67 171.319C446.59 169.371 449.343 168.073 453.613 168.073L453.613 163.073ZM435.282 180.532V185.532H470.548V180.532V175.532H435.282V180.532ZM470.548 180.532L475.524 180.043C474.911 173.813 472.621 168.317 468.744 164.326C464.823 160.288 459.542 158.073 453.613 158.073V163.073V168.073C456.937 168.073 459.6 169.263 461.571 171.293C463.586 173.368 465.137 176.602 465.572 181.022L470.548 180.532ZM554.264 37.8223V42.8223C566.266 42.8223 574.832 45.4378 580.437 49.5551C585.899 53.5679 589.012 59.338 589.607 66.848L594.592 66.4531L599.576 66.0583C598.774 55.9358 594.381 47.3904 586.357 41.496C578.475 35.7059 567.575 32.8223 554.264 32.8223V37.8223ZM594.592 66.4531V61.4531H568.404V66.4531V71.4531H594.592V66.4531ZM568.404 66.4531L573.362 65.8063C572.69 60.6533 570.463 56.591 566.539 54.0215C562.876 51.6225 558.399 50.9785 554.089 50.9785V55.9785V60.9785C557.635 60.9785 559.792 61.5566 561.06 62.3873C562.069 63.0476 563.071 64.2225 563.446 67.0999L568.404 66.4531ZM554.089 55.9785V50.9785C550.085 50.9785 545.969 51.7116 542.676 53.7135C539.135 55.8654 536.694 59.4458 536.693 64.1834L541.693 64.1836L546.693 64.1838C546.693 63.335 546.958 62.8129 547.87 62.2588C549.028 61.5548 551.11 60.9785 554.089 60.9785V55.9785ZM541.693 64.1836H536.693C536.693 67.3334 538.055 69.8835 540.137 71.7283C542.028 73.4048 544.42 74.4287 546.649 75.1428C551.004 76.5384 556.98 77.3789 562.259 78.3534L563.167 73.4365L564.075 68.5196C558.006 67.3992 553.245 66.7557 549.701 65.6198C547.979 65.0682 547.13 64.5645 546.769 64.2442C546.627 64.1185 546.634 64.0846 546.667 64.1541C546.706 64.2356 546.693 64.2732 546.693 64.1836H541.693ZM563.167 73.4365L562.345 78.3685C570.308 79.6957 577.873 81.2458 583.486 84.8141C586.188 86.5316 588.347 88.6706 589.858 91.444C591.374 94.2239 592.386 97.9123 592.386 102.941H597.386H602.386C602.386 96.5353 601.085 91.1453 598.639 86.6582C596.19 82.1646 592.74 78.8477 588.851 76.3752C581.282 71.5632 571.738 69.7961 563.989 68.5046L563.167 73.4365ZM597.386 102.941H592.386C592.386 111.009 588.928 116.913 582.989 120.991C576.845 125.211 567.777 127.62 556.708 127.62V132.62V137.62C569.033 137.62 580.304 134.966 588.65 129.235C597.202 123.362 602.386 114.427 602.386 102.941H597.386ZM556.708 132.62V127.62C544.316 127.62 534.81 124.763 528.432 120.096C522.194 115.532 518.602 109.004 518.231 100.626L513.236 100.847L508.241 101.068C508.743 112.418 513.794 121.776 522.527 128.166C531.12 134.454 542.913 137.62 556.708 137.62V132.62ZM513.236 100.847V105.847H540.122V100.847V95.8467H513.236V100.847ZM540.122 100.847L535.156 101.431C535.803 106.927 538.056 111.563 542.088 114.745C546.034 117.858 551.097 119.114 556.533 119.114V114.114V109.114C552.542 109.114 549.923 108.188 548.282 106.894C546.728 105.668 545.489 103.67 545.088 100.262L540.122 100.847ZM556.533 114.114V119.114C561.31 119.114 565.848 118.255 569.364 116.07C573.133 113.727 575.5 109.958 575.5 105.211H570.5H565.5C565.5 106.225 565.161 106.908 564.085 107.576C562.756 108.402 560.311 109.114 556.533 109.114V114.114ZM570.5 105.211L575.5 105.211C575.5 101.927 574.334 99.1168 572.221 96.9271C570.255 94.8897 567.71 93.6354 565.273 92.7724C560.565 91.1049 554.193 90.2622 548.673 89.288L547.804 94.2119L546.935 99.1358C553.286 100.257 558.262 100.898 561.934 102.199C563.688 102.82 564.59 103.42 565.025 103.871C565.313 104.169 565.5 104.479 565.5 105.211L570.5 105.211ZM547.804 94.2119L548.635 89.2814C540.809 87.9626 533.764 86.3752 528.658 83.0258C524.018 79.9825 520.681 75.2911 520.681 66.4531H515.681H510.681C510.681 78.565 515.636 86.4437 523.173 91.3876C530.244 96.0254 539.26 97.8425 546.973 99.1424L547.804 94.2119ZM515.681 66.4531L520.681 66.4532C520.681 58.8141 524.113 53.1417 529.877 49.1916C535.818 45.1201 544.387 42.8223 554.264 42.8223V37.8223V32.8223C543.016 32.8223 532.294 35.4125 524.224 40.9428C515.978 46.5944 510.681 55.2375 510.681 66.4531L515.681 66.4531ZM167.907 37.8223V42.8223C179.464 42.8223 188.376 46.5854 195.097 52.6948L198.46 48.9951L201.823 45.2954C193.18 37.4382 181.839 32.8223 167.907 32.8223V37.8223ZM198.46 48.9951L195.079 52.6784C204.346 61.1866 209.338 75.1444 209.172 92.4187L214.172 92.4668L219.172 92.5149C219.355 73.4761 213.872 56.357 201.841 45.3119L198.46 48.9951ZM214.172 92.4668V87.4668H149.926V92.4668V97.4668H214.172V92.4668ZM149.926 92.4668L144.977 93.184C145.951 99.901 148.364 105.906 152.674 110.273C157.076 114.732 163.004 117.02 170.003 117.02V112.02V107.02C165.305 107.02 162.067 105.553 159.791 103.248C157.424 100.85 155.646 97.0785 154.874 91.7496L149.926 92.4668ZM170.003 112.02L170.003 117.02C174.497 117.019 178.55 116.022 181.954 113.913C185.378 111.792 187.842 108.733 189.423 105.12L184.842 103.116L180.261 101.112C179.398 103.085 178.196 104.478 176.688 105.412C175.16 106.359 173.015 107.019 170.003 107.02L170.003 112.02ZM184.842 103.116V108.116H212.601V103.116V98.1162H184.842V103.116ZM212.601 103.116L207.738 101.953C206.124 108.703 201.658 115.364 194.75 120.123L197.587 124.24L200.423 128.358C209.227 122.293 215.237 113.59 217.463 104.279L212.601 103.116ZM197.587 124.24L194.726 120.14C188.122 124.747 180.059 127.446 169.653 127.446V132.446V137.446C181.944 137.446 192.038 134.208 200.448 128.341L197.587 124.24ZM169.653 132.446V127.446C156.103 127.446 145.534 122.784 138.349 115.371C131.139 107.931 126.992 97.3628 126.992 84.959H121.992H116.992C116.992 99.6155 121.923 112.791 131.168 122.33C140.437 131.895 153.699 137.446 169.653 137.446V132.446ZM121.992 84.959L126.992 84.959C126.992 60.7955 143.643 42.8224 167.907 42.8223L167.907 37.8223L167.907 32.8223C137.702 32.8224 116.992 55.7006 116.992 84.959L121.992 84.959ZM279.217 37.8223L279.217 42.8223C287.727 42.8224 294.078 45.8185 298.353 50.6187C302.689 55.4881 305.292 62.6784 305.292 71.6914H310.292H315.292C315.292 60.8021 312.134 51.058 305.821 43.9684C299.446 36.8096 290.26 32.8224 279.217 32.8223L279.217 37.8223ZM310.292 71.6914H305.292V129.827H310.292H315.292V71.6914H310.292ZM310.292 129.827V124.827H281.835V129.827V134.827H310.292V129.827ZM281.835 129.827H286.835V77.4521H281.835H276.835V129.827H281.835ZM281.835 77.4521L286.835 77.4521C286.835 71.9718 285.469 66.728 282.157 62.7666C278.737 58.6755 273.752 56.5654 267.868 56.5654V61.5654V66.5654C271.238 66.5654 273.235 67.6851 274.485 69.1804C275.844 70.8056 276.835 73.5051 276.835 77.4522L281.835 77.4521ZM267.868 61.5654L267.868 56.5654C261.646 56.5655 256.307 59.209 252.617 63.6898C248.991 68.093 247.156 74.001 247.156 80.4199L252.156 80.4199L257.156 80.42C257.156 75.8404 258.464 72.3212 260.337 70.0468C262.146 67.85 264.663 66.5655 267.868 66.5654L267.868 61.5654ZM252.156 80.4199H247.156V129.827H252.156H257.156V80.4199H252.156ZM252.156 129.827V124.827H223.699V129.827V134.827H252.156V129.827ZM223.699 129.827H228.699V40.4404H223.699H218.699V129.827H223.699ZM223.699 40.4404V45.4404H251.108V40.4404V35.4404H223.699V40.4404ZM251.108 40.4404H246.108V52.6611H251.108H256.108V40.4404H251.108ZM251.108 52.6611V57.6611H251.632V52.6611V47.6611H251.108V52.6611ZM251.632 52.6611L255.745 55.5033C258.731 51.1827 261.991 48.0677 265.692 46.0119C269.373 43.9671 273.754 42.8223 279.217 42.8223V37.8223V32.8223C272.284 32.8223 266.19 34.2958 260.836 37.27C255.502 40.2331 251.167 44.5376 247.518 49.819L251.632 52.6611ZM375.466 39.0439V44.0439C378.095 44.0439 378.901 44.2598 379.083 44.3379L381.053 39.7422L383.022 35.1465C380.761 34.1771 378.074 34.0439 375.466 34.0439V39.0439ZM381.053 39.7422H376.053V64.1836H381.053H386.053V39.7422H381.053ZM381.053 64.1836V59.1836H380.354V64.1836V69.1836H381.053V64.1836ZM380.354 64.1836L381.048 59.2319C371.448 57.8879 362.666 59.4507 356.242 64.9449C349.796 70.4581 346.723 79.0732 346.723 89.6728L351.723 89.6729L356.723 89.6729C356.723 80.8939 359.236 75.5424 362.742 72.5445C366.269 69.5277 371.803 68.0351 379.661 69.1353L380.354 64.1836ZM351.723 89.6729H346.723V129.827H351.723H356.723V89.6729H351.723ZM351.723 129.827V124.827H323.266V129.827V134.827H351.723V129.827ZM323.266 129.827H328.266V40.4404H323.266H318.266V129.827H323.266ZM323.266 40.4404V45.4404H350.501V40.4404V35.4404H323.266V40.4404ZM350.501 40.4404H345.501V54.4072H350.501H355.501V40.4404H350.501ZM350.501 54.4072V59.4072H351.024V54.4072V49.4072H350.501V54.4072ZM351.024 54.4072L355.33 56.9485C358.216 52.0595 361.12 48.9136 364.214 46.959C367.251 45.0397 370.826 44.044 375.466 44.0439L375.466 39.0439L375.466 34.0439C369.282 34.044 363.778 35.4051 358.872 38.5052C354.022 41.5698 350.118 46.1056 346.718 51.866L351.024 54.4072ZM35.9014 123.856L39.44 127.389C48.687 118.126 61.7557 112.557 78.3897 112.557L78.3896 107.557L78.3896 102.557C59.3885 102.557 43.6797 108.987 32.3627 120.324L35.9014 123.856ZM78.3896 107.557V112.557C78.8123 112.557 79.2317 112.56 79.6471 112.566L79.7217 107.566L79.7963 102.567C79.3289 102.56 78.8597 102.557 78.3896 102.557V107.557ZM79.7217 107.566H84.7217V77.8018H79.7217H74.7217V107.566H79.7217ZM79.7217 77.8018V72.8018H35.9014V77.8018V82.8018H79.7217V77.8018ZM35.9014 77.8018H30.9014V123.856H35.9014H40.9014V77.8018H35.9014ZM168.432 58.0732V53.0732C161.878 53.0732 156.425 55.1804 152.366 59.2993C148.425 63.2979 146.244 68.7378 145.179 74.6449L150.1 75.5322L155.02 76.4196C155.875 71.6771 157.449 68.3875 159.488 66.319C161.408 64.3708 164.161 63.0732 168.432 63.0732V58.0732ZM150.1 75.5322V80.5322H185.366V75.5322V70.5322H150.1V75.5322ZM185.366 75.5322L190.342 75.0428C189.729 68.8125 187.439 63.3174 183.563 59.3258C179.642 55.2884 174.361 53.0734 168.432 53.0732L168.432 58.0732L168.432 63.0732C171.755 63.0733 174.418 64.2631 176.389 66.2928C178.405 68.3682 179.956 71.6025 180.39 76.0217L185.366 75.5322ZM512.934 27.8711L507.934 27.8711C507.934 35.725 505.42 40.9207 501.825 44.6539L505.427 48.1221L509.028 51.5902C514.512 45.8961 517.934 38.1731 517.934 27.8711L512.934 27.8711ZM505.427 48.1221L501.83 44.6491C497.911 48.7073 491.934 51.2729 485.9 51.8764L486.397 56.8516L486.895 61.8267C494.827 61.0335 503.166 57.6625 509.024 51.595L505.427 48.1221ZM486.397 56.8516H491.397V46.7256H486.397H481.397V56.8516H486.397ZM486.397 46.7256L487.868 51.5044C496.306 48.908 503.792 41.3438 503.792 31.0138L498.792 31.0137L493.792 31.0135C493.792 36.0462 490.106 40.353 484.927 41.9467L486.397 46.7256ZM498.792 31.0137V26.0137H486.921V31.0137V36.0137H498.792V31.0137ZM486.921 31.0137H491.921V5H486.921H481.921V31.0137H486.921ZM486.921 5V10H512.934V5V0H486.921V5ZM512.934 5H507.934V27.8711H512.934H517.934V5H512.934Z" fill="#093315" mask="url(#path-1-outside-1_83_3)"/>
</svg>
